<svg xmlns="http://www.w3.org/2000/svg" version="1.1" xmlns:xlink="http://www.w3.org/1999/xlink" xmlns:svgjs="http://svgjs.dev/svgjs" viewBox="0 0 9.617765453913107 9.617765453913107"><g transform="matrix(1,0,0,1,3.1207954867498806,3.1207989224932797)"><rect width="9.617765453913107" height="9.617765453913107" x="-3.1207954867498806" y="-3.1207989224932797" fill="#ffffff"></rect><g><path d=" M -1.2759936643440168 1.826989885658542 Q -1.3358472294095465 1.9049693749422403 -1.4449344856602653 1.909088904489411 L -1.4413305235284954 1.7001199798691395 Q -1.4042842933976565 1.6977584479314105 -1.3869591881390524 1.6790544182110994 Q -1.3696340828804483 1.660350388490788 -1.369116767741917 1.6303548490716102 Q -1.3686511841172384 1.6033588635943503 -1.381847409691725 1.5856286737874905 Q -1.3950436352662117 1.5678984839806311 -1.419040066801554 1.567484631869806 Q -1.450035457534704 1.5669500728933232 -1.4675330011728187 1.5956526157533606 Q -1.4850305448109333 1.6243551586133977 -1.507148271871176 1.6889833734246442 Q -1.5313346769111682 1.7575765058158788 -1.5535643432744985 1.7996994441437664 Q -1.575794009637829 1.841822382471654 -1.6178310200631496 1.872602079586822 Q -1.6598680304884703 1.90338177670199 -1.726858068524634 1.9022264395592696 Q -1.79484795787477 1.901053858578598 -1.8427544561121052 1.866222587762904 Q -1.89066095434944 1.8313913169472098 -1.9146226069216916 1.7709691421600782 Q -1.9385842594939435 1.7105469673729463 -1.9372737278096637 1.6345582675110293 Q -1.9351527357416844 1.5115765558924006 -1.876393863098858 1.4390790049976006 Q -1.8176349904560318 1.3665814541028005 -1.713564234613127 1.3633755566798467 L -1.7172371720967008 1.5763438865560089 Q -1.7492496579817747 1.576791935055548 -1.7655662900074307 1.595013282956824 Q -1.7818829220330867 1.6132346308581 -1.7823829933336672 1.6422303189633052 Q -1.7827623577685903 1.6642270478707022 -1.7700057044182613 1.6784491361596823 Q -1.7572490510679324 1.6926712244486621 -1.7332526195325901 1.6930850765594874 Q -1.7132555932531384 1.6934299533185084 -1.6984904697122944 1.6781822936022235 Q -1.6837253461714505 1.6629346338859385 -1.6728302991018642 1.6401191139630549 Q -1.6619352520322779 1.6173035940401714 -1.645161658300919 1.5725861863186217 Q -1.621009740936829 1.5059927565553322 -1.5977629794215749 1.462887210751423 Q -1.574516217906321 1.419781664947514 -1.5334790587949727 1.3889847239943949 Q -1.4924418996836248 1.3581877830412759 -1.430451118217324 1.359256900994241 Q -1.367460485437051 1.3603432627851573 -1.3180111006338793 1.3927007710728465 Q -1.2685617158307079 1.4250582793605355 -1.2405920360835903 1.4850495038424854 Q -1.2126223563364726 1.545040728324435 -1.2140191072105078 1.6260286847562149 Q -1.216140099278487 1.7490103963748438 -1.2759936643440168 1.826989885658542 M -1.721019321044298 0.4455382320376131 L -1.0401606706329192 0.6284494076393133 L -1.091012571934952 0.817737770023186 L -1.3643217890504418 0.7443138513064751 L -1.4263299748217981 0.9751297625806872 L -1.1530207577063085 1.0485536812973981 L -1.2038726590083415 1.2378420436812707 L -1.8847313094197204 1.0549308680795706 L -1.8338794081176872 0.8656425056956978 L -1.5779538161190838 0.9343963518438546 L -1.5159456303477274 0.7035804405696425 L -1.7718712223463307 0.6348265944214857 L -1.721019321044298 0.4455382320376131 M -1.5174301353896789 0.014571100853396746 L -0.8838597491067466 0.3237855339338982 L -0.9698257475234534 0.49992708813454323 L -1.6033961338063856 0.19071265505404172 L -1.5174301353896789 0.014571100853396746 M -0.4318961074383838 -0.33154079749428755 L -0.5504221431722487 -0.17543961603426594 L -1.0220505147119794 -0.2058317064326184 L -0.7082552825933645 0.03242981437933429 L -0.8267813183272292 0.1885309958393559 L -1.3882677108237358 -0.2377998979992904 L -1.269741675089871 -0.3939010794593121 L -0.794131130553711 -0.3604853657004018 L -1.111908535668755 -0.6017705098729123 L -0.9933824999348903 -0.7578716913329339 L -0.4318961074383838 -0.33154079749428755 M -0.51592104531989 -0.9762793055610856 L -0.4431850661025484 -0.8872036224186339 L -0.2689065556064473 -1.0295131469743022 L -0.17466602601180467 -0.9141020444679954 L -0.34894453650790574 -0.771792519912327 L -0.26861871598092846 -0.6734219828767499 L -0.07110307075201394 -0.8347061107065075 L 0.028197353049052465 -0.713098438938117 L -0.3211342391009101 -0.42784690305097717 L -0.7670374160420044 -0.9739195692720939 L -0.4177058238920418 -1.2591711051592336 L -0.31840540009097545 -1.137563433390843 L -0.51592104531989 -0.9762793055610856 M -0.08356277956174518 -1.2869216736540023 Q -0.07978293028254019 -1.3792266721071007 -0.027488780267055785 -1.4549602305482439 Q 0.024805369748428674 -1.5306937889893866 0.11848129745685743 -1.5758692310787037 Q 0.23737766724063236 -1.6332072921920675 0.3490671110969346 -1.6087999545439358 Q 0.46075655495323686 -1.584392616895804 0.536735426234261 -1.4866981384496727 L 0.34668138059504483 -1.3950441165184624 Q 0.3121923391524215 -1.4228201137169252 0.27289591740138286 -1.4271837403696646 Q 0.23359949565034424 -1.4315473670224037 0.19396737238908593 -1.412434679984616 Q 0.1327177273489594 -1.3828968909262163 0.11730555301377199 -1.3216191226716383 Q 0.10189337867858456 -1.2603413544170599 0.13707809799814874 -1.1873822184133798 Q 0.17269719656857171 -1.1135223523355804 0.23024415823706437 -1.0874293034005662 Q 0.287791119905557 -1.0613362544655522 0.34904076494568353 -1.090874043523952 Q 0.38867288820694185 -1.1099867305617397 0.4097253814219102 -1.1434537670220197 Q 0.4307778746368785 -1.1769208034822998 0.4305165760107965 -1.2212032122133976 L 0.6205706216500125 -1.3128572341446079 Q 0.6497115290768222 -1.1925750346538182 0.5992695595916131 -1.0899794318510994 Q 0.548827590106404 -0.9873838290483807 0.4299312203226291 -0.9300457679350169 Q 0.33625529261420034 -0.8848703258456999 0.24443263077056354 -0.8911032041494322 Q 0.1526099689269268 -0.8973360824531644 0.07802630175773469 -0.9518500860815458 Q 0.003442634588542534 -1.006364089709927 -0.04216718675163322 -1.1009407474924753 Q -0.08734262884095018 -1.194616675200904 -0.08356277956174518 -1.2869216736540023 M 1.0020062812453996 -1.1859862053866905 Q 0.9122449931803321 -1.2175165267440755 0.8502772331259646 -1.2904445509449567 Q 0.788309473071597 -1.363372575145838 0.7704206891880759 -1.4658225210275644 Q 0.7525319053045548 -1.568272466909291 0.7861184216975667 -1.6578852222323024 Q 0.8197049380905786 -1.747497977555314 0.8935555289515529 -1.807089002294657 Q 0.9674061198125272 -1.866680027034 1.0649305875268629 -1.8837087732308133 Q 1.1634401508746768 -1.9009095269649683 1.2526228873543346 -1.8697857496556516 Q 1.3418056238339922 -1.838661972346335 1.4032808360716207 -1.765647944376783 Q 1.464756048309249 -1.6926339164072308 1.4826448321927703 -1.5901839705255045 Q 1.5005336160762914 -1.4877340246437782 1.4674396475000187 -1.3982072730894373 Q 1.4343456789237456 -1.3086805215350965 1.3605810918314423 -1.2485969489790145 Q 1.2868165047391387 -1.1885133764229323 1.189292037024803 -1.171484630226119 Q 1.0917675693104671 -1.1544558840293058 1.0020062812453996 -1.1859862053866905 M 1.2662921284660644 -1.4194246147345426 Q 1.3007154191926276 -1.4751766286493289 1.2866108011306205 -1.5559544705945363 Q 1.2721621679939306 -1.6387025038066998 1.2209681423765661 -1.6789973141560322 Q 1.1697741167592022 -1.7192921245053645 1.0958919442483417 -1.7063915592047483 Q 1.0210246761040032 -1.6933189863667906 0.9870079294255084 -1.6381455240374143 Q 0.9529911827470136 -1.582972061708038 0.9674398158837036 -1.5002240284958743 Q 0.9817164414830523 -1.4184610909171889 1.0324179192836773 -1.3780802767991855 Q 1.0831193970843025 -1.3376994626811824 1.157986665228641 -1.3507720355191404 Q 1.2318688377395015 -1.3636726008197564 1.2662921284660644 -1.4194246147345426 M 2.578932660887251 -1.8392535026941152 L 2.4847242098475766 -1.1405763470974082 L 2.290482050277428 -1.1667676327765233 L 2.3424637346099577 -1.5522788576376851 L 2.1586748705691132 -1.184540290915923 L 1.9961457166430705 -1.2064554483208971 L 1.915730076866608 -1.6128460546091603 L 1.8633475055083772 -1.2243617354688636 L 1.669105345938229 -1.250553021147979 L 1.7633137969779038 -1.949230176744686 L 1.9981882450295627 -1.9175601017143271 L 2.1123987215748765 -1.4400153739167183 L 2.3450492442619706 -1.870789948715907 L 2.578932660887251 -1.8392535026941152 M 3.246705714604664 -1.1911469425592602 Q 3.19854304823221 -1.1549964575293785 3.1313932428932407 -1.1501587263526196 Q 3.064243437554272 -1.145320995175861 2.985542727642007 -1.17999372594956 L 2.896775647857242 -1.2191013408919882 L 2.8008208812974695 -1.0013017018324626 L 2.6214564726602134 -1.0803232742934517 L 2.9056922307469337 -1.7254860706672563 L 3.1738237191689547 -1.6073568832638392 Q 3.2516093045473564 -1.5730873237782061 3.29396407567025 -1.5216448961223565 Q 3.3363188467931435 -1.470202468466507 3.3424045045415376 -1.4096057295297506 Q 3.3484901622899317 -1.3490089905929943 3.320671343413359 -1.285865397756409 Q 3.294868380977118 -1.2272974275891417 3.246705714604664 -1.1911469425592602 M 3.1376464366406487 -1.3664996553696631 Q 3.1686906258217515 -1.4369642444771566 3.0927352895110767 -1.470427461386657 L 3.0213555758697193 -1.501874821855826 L 2.95967036879558 -1.3618607681747026 L 3.0310500824369373 -1.3304134077055334 Q 3.107005418747612 -1.296950190796033 3.1376464366406487 -1.3664996553696631 M 3.8120378400153125 -1.2388388025842991 L 3.5620472984125775 -0.9151325636744331 Q 3.5272075407809007 -0.8700194692542317 3.5292332340362225 -0.8292868463723776 Q 3.5312589272915442 -0.7885542234905235 3.573997648321209 -0.7555481373131453 Q 3.6167363693508734 -0.7225420511357671 3.6577550090342656 -0.7306643167386658 Q 3.6987736487176583 -0.7387865823415645 3.7330021825312354 -0.7831082189649202 L 3.9829927241339704 -1.1068144578747863 L 4.138118452315716 -0.9870145895272654 L 3.8881279107129805 -0.6633083506173993 Q 3.8288392003573195 -0.5865369443233724 3.7545205991468262 -0.5573822617815296 Q 3.6802019979363325 -0.5282275792396869 3.603317001534279 -0.544013564424534 Q 3.5264320051322255 -0.5597995496093809 3.4583666346035007 -0.6123647979659463 Q 3.390301264074776 -0.6649300463225116 3.357965084512131 -0.7334929480354089 Q 3.325628904949487 -0.8020558497483061 3.3367209994017024 -0.879407096930644 Q 3.347813093853918 -0.9567583441129819 3.407713028027678 -1.0343212082038544 L 3.657703569630413 -1.3580274471137206 L 3.8120378400153125 -1.2388388025842991 M 4.686078447451318 -0.35143903075532057 L 4.564391544282167 -0.25382603163582884 L 4.446755365856114 -0.40047435083967636 L 4.018511072010836 -0.056951680861465015 L 3.8958690987581406 -0.2098403540739869 L 4.324113392603419 -0.5533630240521983 L 4.2077286628840245 -0.6984512547538771 L 4.329415566053175 -0.7960642538733689 L 4.686078447451318 -0.35143903075532057 M 4.765513888348269 0.11140104308215326 L 4.662833479354121 0.1631865005851473 L 4.764152852729544 0.3640829529650029 L 4.631114757597995 0.4311788935558387 L 4.529795384222572 0.23028244117598304 L 4.416400497768165 0.28747159859233296 L 4.5312291209269775 0.5151542446228361 L 4.391048040821922 0.5858526518225757 L 4.187958985744963 0.18316687394117614 L 4.817434536535178 -0.13430049596848292 L 5.020523591612137 0.26838528191291666 L 4.880342511507082 0.33908368911265635 L 4.765513888348269 0.11140104308215326 M 4.528826863395684 1.0527734733430325 L 4.746434080786357 0.8531560919868775 L 4.741271859650164 0.8328004668935269 L 4.4892498346848715 0.8967136809606784 L 4.441069104080404 0.7067278467560734 L 5.1244365179286 0.5334247086124511 L 5.200394914646869 0.8329431921288948 Q 5.221289619245745 0.9153350079829327 5.207198195759152 0.979776312936522 Q 5.193106772272559 1.0442176178901112 5.150561626642951 1.0859568150955616 Q 5.108016481013343 1.127696012301012 5.045980290252656 1.1434284957636953 Q 4.976189575646883 1.1611275396592142 4.91365198981511 1.1362367711227939 Q 4.851114403983337 1.1113460025863735 4.8101378238167785 1.043331887302459 L 4.582661455244554 1.2650535636022595 L 4.528826863395684 1.0527734733430325 M 4.871160134055353 0.7998605796435335 L 4.895004679303482 0.8938841812652003 Q 4.904837481467659 0.9326568004906298 4.928170876681827 0.9473725290753605 Q 4.9515042718959945 0.9620882576600912 4.986399629198882 0.9532387357123318 Q 5.019356355540497 0.9448808538727812 5.033218696303753 0.9202163954647121 Q 5.047081037067009 0.8955519370566432 5.0374940549569365 0.8577486333118493 L 5.013649509708807 0.7637250316901825 L 4.871160134055353 0.7998605796435335 M 4.645615570534391 1.4470512684354513 Q 4.702744609203654 1.36705425011148 4.8116249393989605 1.35917556389098 L 4.81522890153073 1.5681444885112517 Q 4.7782861344275975 1.5717820644573584 4.761616295011133 1.5910723846680055 Q 4.744946455594669 1.6103627048786524 4.745463770733201 1.6403582442978302 Q 4.745929354357879 1.66735422977509 4.759729114260653 1.6846188359572714 Q 4.773528874163426 1.7018834421394524 4.797525305698768 1.7014695900286272 Q 4.8285206964319185 1.7009350310521447 4.845018097468872 1.6716461977017716 Q 4.861515498505826 1.6423573643513987 4.881391526632432 1.577004908346208 Q 4.903198282035179 1.507618559409225 4.92396222217267 1.4647541360494423 Q 4.944726162310161 1.4218897126896597 4.9856768109445655 1.3896787770245544 Q 5.02662745957897 1.3574678413594492 5.093617497615133 1.3563125042167288 Q 5.16160738696527 1.3551399232360573 5.210686466183276 1.3882985417704994 Q 5.259765545401282 1.4214571603049415 5.28579645852766 1.4810171431945207 Q 5.311827371654038 1.5405771260841 5.313137903338318 1.616565825946017 Q 5.315258895406298 1.7395475375646456 5.259034866942275 1.8140281298238166 Q 5.202810838478253 1.8885087220829875 5.098912521014859 1.8953013377997596 L 5.095239583531286 1.6823330079235976 Q 5.1272175817404575 1.6807813537951914 5.142896191761924 1.6620082030794818 Q 5.1585748017833915 1.643235052363772 5.158074730482811 1.6142393642585668 Q 5.1576953660478875 1.5922426353511698 5.14445588523493 1.5784688868489172 Q 5.131216404421971 1.5646951383466645 5.107219972886629 1.5651089904574897 Q 5.087222946607177 1.5654538672165108 5.072992382042815 1.5812015982333762 Q 5.058761817478454 1.5969493292502417 5.0486599869546165 1.6201269697700973 Q 5.038558156430779 1.643304610289953 5.0233365081150145 1.6885738208259364 Q 5.001495265036365 1.7559604671349742 4.9797487174228525 1.7998419856466805 Q 4.9580021698093395 1.8437235041583868 4.918051372488908 1.8759171959855412 Q 4.878100575168476 1.9081108878126953 4.816109793702175 1.9091800057656605 Q 4.753119160921902 1.9102663675565767 4.7025834143278145 1.8796332430639926 Q 4.652047667733727 1.8490001185714084 4.622025971270434 1.7900090366906198 Q 4.592004274807142 1.7310179548098312 4.590607523933106 1.6500299983780513 Q 4.588486531865127 1.5270482867594226 4.645615570534391 1.4470512684354513" fill="#102036" fill-rule="nonzero"></path></g><g><path d=" M -0.4254456917441617 3.704318070332042 L -0.947355966469867 4.1738004077375495 L -1.061717048658388 4.046668417740262 L -0.5398067739326828 3.577186080334755 L -0.4254456917441617 3.704318070332042 M -0.2539993706594964 4.761181161497655 L -0.39012227464266186 4.6576845189859775 L -0.3557193759972179 4.139899389260537 L -0.6177898216554415 4.484584871276389 L -0.753912725638607 4.381088228764711 L -0.32903177216961627 3.82226788609698 L -0.1929088681864508 3.925764528608657 L -0.22852225387881497 4.445141739082438 L 0.03475867882632888 4.098864176318246 L 0.17088158280949428 4.202360818829923 L -0.2539993706594964 4.761181161497655 M 0.7255516333303651 4.455520620866693 L 0.6698628563713065 4.58069154449037 L 0.40855713260217186 4.464436141495547 L 0.3483969939894662 4.59965728526419 L 0.5439194586279097 4.686645593798778 L 0.48985663136108637 4.808161891915193 L 0.29433416672264295 4.721173583380605 L 0.17889173857393764 4.98065199439611 L 0.022656498138545915 4.911142645053052 L 0.30801066912583863 4.2697558685288115 L 0.7255516333303651 4.455520620866693 M 0.8645452267862208 5.179562266956375 Q 0.791691510590219 5.119440839524615 0.7588617620362201 5.029548083365505 Q 0.7260320134822212 4.9396553272063946 0.7446036655055032 4.8383434634335565 Q 0.7631753175287852 4.737031599660718 0.8256656171296762 4.665120456881654 Q 0.8881559167305673 4.593209314102591 0.977597904636685 4.562838591368322 Q 1.0670398925428026 4.532467868634051 1.1644173150040744 4.5503182914525455 Q 1.2617947374653462 4.5681687142710405 1.3346484536613477 4.6282901417028 Q 1.4075021698573495 4.688411569134561 1.4394384617340554 4.777632212828528 Q 1.471374753610761 4.866852856522495 1.4528031015874792 4.968164720295333 Q 1.434231449564197 5.0694765840681715 1.3721428014766532 5.141969685661779 Q 1.3100541533891097 5.214462787255388 1.2211039706469378 5.244923663640256 Q 1.1321537879047658 5.275384540025124 1.0347763654434943 5.25753411720663 Q 0.9373989429822225 5.239683694388136 0.8645452267862208 5.179562266956375 M 1.2052971023986643 5.073260059704588 Q 1.2650666328242188 5.0272834000531015 1.2816549045343348 4.9367912498870705 Q 1.2984234835456476 4.845315489393149 1.2587582172035487 4.7816195974847195 Q 1.21909295086145 4.71792370557629 1.1364696833185528 4.702777892275749 Q 1.0528628054477642 4.687451771674011 0.9932735823234065 4.732444820997607 Q 0.9336843591990488 4.777437870321203 0.916735472886539 4.869897241143017 Q 0.8999668938752261 4.961373001636939 0.939632160217325 5.025068893545368 Q 0.9792974265594238 5.088764785453797 1.0629043044302127 5.104090906055535 Q 1.1455275719731097 5.119236719356076 1.2052971023986643 5.073260059704588 M 2.1445214752577537 4.584683443548238 L 2.1532247546347434 4.721406714896191 L 1.967600459228033 4.733222846021155 L 2.0034935457097784 5.297081592821109 L 1.832838951545545 5.307944810145672 L 1.7969458650637993 4.744086063345719 L 1.611321569657089 4.755902194470683 L 1.6026182902800994 4.61917892312273 L 2.1445214752577537 4.584683443548238 M 2.4564458094324713 4.646921652226642 L 2.493820609626193 4.783914806473412 L 2.714746189362182 4.723641361090579 L 2.749488961373247 4.850987110108704 L 2.5285633816372584 4.911260555491537 L 2.569096615650168 5.059830596012682 L 2.818964411072094 4.99166106608188 L 2.8550231971744875 5.123830517714327 L 2.440184772342718 5.237007729568555 L 2.255416393920235 4.55975988251762 L 2.670254818752004 4.446582670663393 L 2.7063136048543974 4.57875212229584 L 2.4564458094324713 4.646921652226642 M 2.8965508995579454 4.541852981914088 Q 2.8971087356951792 4.44875658660877 2.946058132952066 4.370306242389082 Q 2.995007530208953 4.291855898169395 3.0845942851823307 4.243088969484681 Q 3.194381975100686 4.183325576488708 3.3041058818244284 4.198741940952467 Q 3.413829788548171 4.214158305416227 3.4946830485409035 4.299941464302734 L 3.329562362903697 4.389825607368676 Q 3.290081316662831 4.361220590540738 3.2452702438567185 4.35942678063852 Q 3.200459171050606 4.357632970736303 3.1574223966026107 4.381060220790724 Q 3.0880365765742104 4.4188306851641785 3.071295695044443 4.490564518782676 Q 3.0545548135146756 4.562298352401173 3.0985406707597116 4.643102092181083 Q 3.1425265280047476 4.723905831960993 3.2118591953709705 4.748785165470648 Q 3.281191862737194 4.7736644989803025 3.3505776827655946 4.735894034606848 Q 3.3936144572135896 4.712466784552427 3.416432601397184 4.67385872456469 Q 3.439250745580779 4.635250664576953 3.43665836315248 4.586565147702369 L 3.6017790487896866 4.496681004636426 Q 3.6299342176216083 4.611150592161 3.583081400329629 4.71123087749135 Q 3.5362285830376496 4.811311162821701 3.426440893119294 4.871074555817673 Q 3.3368541381459162 4.919841484502387 3.2443969907879615 4.918366390461512 Q 3.1519398434300068 4.916891296420637 3.073689596398008 4.867263694832093 Q 2.99543934936601 4.817636093243549 2.945716206393361 4.726292735231477 Q 2.895993063420712 4.634949377219406 2.8965508995579454 4.541852981914088 M 3.926557848640213 3.5872611111119914 L 4.4118599471226085 4.094494660089761 L 4.288303056986998 4.212709273822652 L 4.0885134466431055 4.00389090394434 L 3.8963138397654893 4.187780303084392 L 4.096103450109381 4.396598672962705 L 3.972546559973771 4.514813286695596 L 3.4872444614913753 4.007579737717826 L 3.610801351626986 3.8893651239849354 L 3.800912572542454 4.088067725080215 L 3.993112179420071 3.904178325940163 L 3.8030009585046027 3.7054757248448826 L 3.926557848640213 3.5872611111119914" fill="#3682ae" fill-rule="nonzero"></path></g><g clip-path="url(&quot;#SvgjsClipPath1004&quot;)"><g clip-path="url(&quot;#SvgjsClipPath1000dd137755-d431-4b2f-a39b-f21ace3ddd33&quot;)"><path d=" M 2.8817435192819256 0.4944309611314229 C 2.565860983602881 0.17681715674285972 2.1360402404533327 -0.0012217800693310505 1.6880906759500718 4.797832503432667e-15 C 1.2401388827173856 -0.0012228504907160931 0.810315608729393 0.17681610972234857 0.49443096113142165 0.4944309611314229 C 0.17681715674285733 0.8103134968104665 -0.001221780069334649 1.2401342399600142 0 1.6880838044632747 C -0.0012288242362486531 2.136040812102612 0.17681077014990712 2.565870565822997 0.49443096113142165 2.8817572622555234 C 0.8103138687331441 3.199374710059038 1.2401382771483866 3.377414140168131 1.6880906759500725 3.376188223386944 C 2.136040846027958 3.377413069739652 2.5658627236007057 3.199373663030411 2.8817435192819256 2.8817572622555234 C 3.1993586218521624 2.5658755965660824 3.377397793609664 2.1360542862127008 3.3761744804133467 1.6881044189236691 C 3.377401771467877 1.2401477140663555 3.199362412035157 0.8103185275791726 2.881743519281971 0.49443096113146845 Z M 2.9327986661981003 2.491477426535742 C 2.815441879725408 2.4207410200353987 2.6905146413013328 2.363403566473825 2.5603640816951807 2.3205423209251412 C 2.607429205447778 2.147691058708474 2.635085817531565 1.9701333044128908 2.6428219232825443 1.7911561064474777 L 3.166381116954699 1.7911561064474777 C 3.1492594188233856 2.0406391158465214 3.0688714063313816 2.2816494387103456 2.932798666198098 2.4914568120753473 Z M 0.20979336345864563 1.79115610644748 L 0.7334006575383943 1.79115610644748 C 0.7415683321273626 1.9698624019823616 0.7707203389577411 2.1469885194327607 0.8202562506770834 2.318886292606601 C 0.6885203172414608 2.3619775296401606 0.562100538997198 2.419880738792958 0.44342391462283864 2.491484298022541 C 0.3073292269763994 2.281673845226858 0.2269243197245575 2.0406530411888246 0.20979336345864563 1.7911561064474777 Z M 0.44847445742006387 0.876959759741995 C 0.5658617475277872 0.9471929326995111 0.6907225533063017 1.004102263872248 0.8207372547530091 1.046630511781592 C 0.770947484707755 1.2221184654371111 0.7416492640606634 1.4027823712847138 0.7334281434855903 1.585011502479074 L 0.2098208494058415 1.585011502479074 C 0.22716442190619254 1.3323993286704376 0.30936252844677287 1.0885290889953791 0.44847445742006503 0.8769597597419903 Z M 1.7911629779342748 1.177745351392294 C 1.9802014177952327 1.1719430948633123 2.1681908387077886 1.147313046328215 2.3523435618306654 1.1042204426435627 C 2.3995231631145644 1.2605265494822553 2.4276887033899404 1.4219500714717086 2.4362306726722065 1.584997759505476 L 1.7911629779342748 1.584997759505476 Z M 1.7911629779342748 0.9714770606615091 L 1.7911629779342748 0.24280398604078704 C 1.8896588697103787 0.30163765601336917 2.0188634359909754 0.4303199892972471 2.1367987639213 0.6214229086627561 C 2.1931333434098863 0.7132753561305617 2.242000111601836 0.8095037795093954 2.2829278021877033 0.9091801613422522 C 2.1213099582898147 0.9452505816023881 1.9566698314628594 0.9661095373906108 1.7911629779342717 0.9714839321483032 Z M 1.58501837396587 0.23667461981613042 L 1.58501837396587 0.9713877313331224 C 1.4169091927943591 0.9655359173445676 1.2497357517349166 0.9437309860098159 1.0857498861279944 0.9062666509395025 C 1.124663731956429 0.807327836304767 1.171579625499089 0.7117265053532754 1.2260312891284901 0.6204128001033145 C 1.3495943647471527 0.4147560716976331 1.4822071884800274 0.2900660722439459 1.58501837396587 0.23667461981612561 Z M 1.58501837396587 1.177759094365892 L 1.58501837396587 1.585011502479074 L 0.9397307916503713 1.585011502479074 C 0.947499384513823 1.4218868657938464 0.9740544496124734 1.2602023272931373 1.0188697051138411 1.103162233676528 C 1.2046038499112801 1.146966857113132 1.3942767397403153 1.1719585296499844 1.5850183739658708 1.177759094365892 Z M 0.9398338639523547 1.79115610644748 L 1.58501837396587 1.79115610644748 L 1.58501837396587 2.1876408947467114 C 1.3940925610452466 2.193442091069527 1.2042378546069648 2.218475498505164 1.0183337291435262 2.262361442198457 C 0.9741379107574314 2.1088334260726467 0.947797238624564 1.9507202213423158 0.9398338639523547 1.79115610644748 Z M 1.58501837396587 2.3939779003454884 L 1.58501837396587 3.1367856233116385 C 1.4831004817638909 3.0800683712731325 1.351724525654826 2.9513310660948626 1.2323874144175164 2.7552600617737135 C 1.1753285871882855 2.6607838305667446 1.1262340564182975 2.561721364453147 1.0856124563920124 2.459098980739106 C 1.2496434466509594 2.421627043650146 1.416863214976948 2.3998220717958687 1.5850183739658665 2.3939779003454884 Z M 1.7911629779342748 3.142860017641908 L 1.7911629779342748 2.393867956556705 C 1.9620749231343695 2.399382874354566 2.132047978050657 2.4214752291771555 2.298690992904486 2.459834229826596 C 2.163432646754019 2.8149870250301596 1.9556595004142627 3.0635699314688605 1.7911629779342748 3.1428737606155037 Z M 1.7911629779342748 2.1876202802863145 L 1.7911629779342748 1.791135491987083 L 2.4365398895781603 1.791135491987083 C 2.4292003047525 1.9508329420386787 2.4043835633850934 2.109245322310398 2.362533976753502 2.263536466441088 C 2.17514404593431 2.218921398421771 1.9837015320320468 2.1934850609923693 1.7911629779342773 2.1876202802863123 Z M 2.642705108006962 1.5849908880186772 C 2.6340101044925137 1.4029390584056456 2.603088025851282 1.2226333408957466 2.550627184901074 1.0480872669829668 C 2.6823557067649033 1.0053748796219766 2.80885520757586 0.947963745024699 2.927734380427275 0.8769391452816006 C 3.066851068291666 1.088507675594358 3.149056093295738 1.3323773763621811 3.1664086029018947 1.5849908880186772 Z M 2.8021236017425286 0.7119478757520866 C 2.7009710710087416 0.7703673781061289 2.5939252689067924 0.8179281907495549 2.482771252761475 0.8538372066635382 C 2.4357634664236376 0.7356130263628072 2.378709144510194 0.6216354203451323 2.312234693385214 0.5131557626585568 C 2.2611759566516687 0.4296288620568258 2.2033215746805483 0.3504511195038108 2.1392587561953236 0.27642617094803695 C 2.3956030505207617 0.3588655052445559 2.624729567737894 0.5094092511478505 2.802151087689725 0.7119684902124811 Z M 1.2136557414035871 0.2839916779136763 C 1.1525717605083452 0.3560241671202154 1.0975974202357868 0.4330222605699474 1.049303520146379 0.5141864856783953 C 0.9852440011095985 0.6212420986950116 0.930627045480765 0.7336718663334038 0.8860713512373947 0.8502021901468965 C 0.7776142955699714 0.8148891781249662 0.6730759874600967 0.7685169977940255 0.574105850565209 0.7118173175029061 C 0.7460585415233172 0.5155561588082146 0.9666402469526161 0.3680119124679021 1.2136832273507832 0.2840122923740732 Z M 0.5677840827101776 2.6571764592055476 C 0.6686105443408209 2.5987383660806875 0.7753253190805585 2.5511091934388177 0.8861538090789788 2.515080983690129 C 0.9325554296277075 2.635630427537692 0.9894786327181528 2.7518612803822116 1.0562643362737076 2.862427769890085 C 1.106008999338128 2.944894775440712 1.1626150474258792 3.0230228907844396 1.2254815701845736 3.0959827346994917 C 0.97066809549423 3.011771000118116 0.7434058959230267 2.8601457256868255 0.5678115686573735 2.6571970736659445 Z M 2.172915298536564 3.088465328141445 C 2.2327758139474754 3.01745336483138 2.286521533246035 2.941504578824604 2.33357753138274 2.861431404304241 C 2.39843918225488 2.7515544203610593 2.4532839883054285 2.636064799837475 2.497448748564024 2.516359080234731 C 2.6057134190638376 2.5523139228562988 2.709920647032515 2.5994936716223482 2.8083697832427696 2.6571283587979546 C 2.637987289484554 2.854075346708637 2.418869794965649 3.0028225563636073 2.17294278448376 3.0884859426018396 Z" fill="#3682ae" transform="matrix(1,0,0,1,0,0)" fill-rule="nonzero"></path></g></g><g><path d=" M -0.9695391098147095 1.688083804463273 A 2.657626350021382 2.657626350021382 0 0 1 4.345713590228055 1.688083804463273 A 2.657626350021382 2.657626350021382 0 0 1 -0.9695391098147095 1.688083804463273 Z M -0.9195391098147097 1.6880838044632736 A 2.6076263500213823 2.6076263500213823 0 0 0 4.295713590228055 1.6880838044632736 A 2.6076263500213823 2.6076263500213823 0 0 0 -0.9195391098147097 1.6880838044632736 Z" fill="#102036" fill-rule="nonzero"></path></g><g><path d=" M -2.344315032257122 1.688083804463274 A 4.032402272463795 4.032402272463795 0 0 1 5.7204895126704685 1.688083804463274 A 4.032402272463795 4.032402272463795 0 0 1 -2.3443150322571213 1.688083804463274 Z M -2.294315032257122 1.6880838044632736 A 3.9824022724637946 3.9824022724637946 0 0 0 5.670489512670468 1.6880838044632736 A 3.9824022724637946 3.9824022724637946 0 0 0 -2.2943150322571215 1.6880838044632736 Z" fill="#102036" fill-rule="nonzero"></path></g><g transform="matrix(-0.4982926436079951,-0.8670089049866533,0.8670089049866533,-0.4982926436079951,-4.529813225201156,3.162992272030901)"><g clip-path="url(&quot;#SvgjsClipPath1005&quot;)"><path d=" M -1.3497507924228178 3.0897900259201525 C -1.239715513802128 3.0897900259201525 -1.1485704593193695 2.9988399672994626 -1.1485704593193695 2.888609692816704 C -1.1485704593193695 2.778574857368428 -1.239715513802128 2.6874300244718765 -1.3499457882848866 2.6874300244718765 C -1.4599812884917833 2.6874300244718765 -1.5509311255262659 2.778574857368428 -1.5509311255262659 2.888609692816704 C -1.5509311255262659 2.9988399672994626 -1.4597865142159212 3.0897900259201525 -1.3497507924228178 3.0897900259201525 Z M -1.3493608006986797 2.9678755107477386 C -1.3935694648366108 2.9678755107477386 -1.4290143944917832 2.932430581092566 -1.4290143944917832 2.888221916954635 C -1.4290143944917832 2.844401028678773 -1.3935694648366108 2.8089560990236007 -1.3493608006986797 2.8089560990236007 C -1.3055421282848867 2.8089560990236007 -1.2700971986297143 2.844401028678773 -1.2700971986297143 2.888221916954635 C -1.2700971986297143 2.932430581092566 -1.3055421282848867 2.9678755107477386 -1.3493608006986797 2.9678755107477386 Z" fill="#102036" transform="matrix(1,0,0,1,0,0)" fill-rule="nonzero"></path></g></g><g transform="matrix(0.4982926436079951,-0.8670089049866533,-0.8670089049866533,-0.4982926436079951,4.878523017350781,8.430657524424706)"><g clip-path="url(&quot;#SvgjsClipPath1006&quot;)"><path d=" M 4.725925272836163 3.0897900259201516 C 4.835960551456853 3.0897900259201516 4.9271056059396106 2.9988399672994617 4.9271056059396106 2.8886096928167033 C 4.9271056059396106 2.7785748573684272 4.835960551456853 2.6874300244718756 4.725730276974094 2.6874300244718756 C 4.615694776767198 2.6874300244718756 4.524744939732715 2.7785748573684272 4.524744939732715 2.8886096928167033 C 4.524744939732715 2.9988399672994617 4.615889551043059 3.0897900259201516 4.725925272836163 3.0897900259201516 Z M 4.7263152645603 2.9678755107477377 C 4.68210660042237 2.9678755107477377 4.646661670767197 2.9324305810925653 4.646661670767197 2.888221916954634 C 4.646661670767197 2.844401028678772 4.68210660042237 2.8089560990235998 4.7263152645603 2.8089560990235998 C 4.770133936974094 2.8089560990235998 4.805578866629266 2.844401028678772 4.805578866629266 2.888221916954634 C 4.805578866629266 2.9324305810925653 4.770133936974094 2.9678755107477377 4.7263152645603 2.9678755107477377 Z" fill="#102036" transform="matrix(1,0,0,1,0,0)" fill-rule="nonzero"></path></g></g></g><defs><clipPath id="SvgjsClipPath1004"><path d=" M 0 0 h 3.376174480413346 v 3.376167608926547 h -3.376174480413346 Z"></path></clipPath><clipPath id="SvgjsClipPath1000dd137755-d431-4b2f-a39b-f21ace3ddd33"><path d=" M 0 2.998645314645417e-16 L 3.376174480413346 2.998645314645417e-16 L 3.376174480413346 3.376167608926547 L 0 3.376167608926547 Z"></path></clipPath><clipPath id="SvgjsClipPath1005"><path d=" M -1.65997148207799 2.5708174024718766 h 0.6204413793103447 v 0.6425999999999998 h -0.6204413793103447 Z"></path></clipPath><clipPath id="SvgjsClipPath1006"><path d=" M 4.4157045831809905 2.5708174024718757 h 0.6204413793103447 v 0.6425999999999998 h -0.6204413793103447 Z"></path></clipPath></defs></svg>